<svg width="24" height="24" viewBox="0 0 24 24" fill="none" xmlns="http://www.w3.org/2000/svg">
<mask id="mask0_781_36574" style="mask-type:alpha" maskUnits="userSpaceOnUse" x="0" y="0" width="24" height="24">
<rect width="24" height="24" fill="#D9D9D9"/>
</mask>
<g mask="url(#mask0_781_36574)">
<path d="M12 21.5C10.8205 21.5 9.71542 21.2769 8.68475 20.8307C7.65392 20.3846 6.75517 19.7782 5.9885 19.0115C5.22183 18.2448 4.61542 17.3461 4.16925 16.3152C3.72308 15.2846 3.5 14.1795 3.5 13C3.5 11.8205 3.72308 10.7154 4.16925 9.68475C4.61542 8.65391 5.22183 7.75516 5.9885 6.9885C6.75517 6.22183 7.65392 5.61541 8.68475 5.16925C9.71542 4.72308 10.8205 4.5 12 4.5C13.1795 4.5 14.2846 4.72308 15.3152 5.16925C16.3461 5.61541 17.2448 6.22183 18.0115 6.9885C18.7782 7.75516 19.3846 8.65391 19.8308 9.68475C20.2769 10.7154 20.5 11.8205 20.5 13C20.5 14.1795 20.2769 15.2846 19.8308 16.3152C19.3846 17.3461 18.7782 18.2448 18.0115 19.0115C17.2448 19.7782 16.3461 20.3846 15.3152 20.8307C14.2846 21.2769 13.1795 21.5 12 21.5ZM14.973 17.027L16.027 15.973L12.75 12.6962V8H11.25V13.3037L14.973 17.027ZM5.75375 2.8885L6.80775 3.94225L2.94225 7.80775L1.8885 6.75375L5.75375 2.8885ZM18.2462 2.8885L22.1115 6.75375L21.0578 7.80775L17.1923 3.94225L18.2462 2.8885ZM12 20C13.9437 20 15.5963 19.3192 16.9578 17.9577C18.3193 16.5962 19 14.9437 19 13C19 11.0563 18.3193 9.40375 16.9578 8.04225C15.5963 6.68075 13.9437 6 12 6C10.0563 6 8.40375 6.68075 7.04225 8.04225C5.68075 9.40375 5 11.0563 5 13C5 14.9437 5.68075 16.5962 7.04225 17.9577C8.40375 19.3192 10.0563 20 12 20Z" fill="#19191A"/>
</g>
</svg>
