<svg width="21" height="20" viewBox="0 0 21 20" fill="none" xmlns="http://www.w3.org/2000/svg">
<path d="M11.9249 8.05012L8.03065 4.15587L9.0999 3.11162L11.9249 5.93662L17.5999 0.286621L18.6442 1.33087L11.9249 8.05012ZM5.7019 15.5771L12.9594 17.6309L18.9287 15.7809C18.8775 15.554 18.7711 15.38 18.6094 15.2589C18.4479 15.1377 18.2672 15.0771 18.0672 15.0771H13.1712C12.734 15.0771 12.3628 15.0605 12.0577 15.0271C11.7525 14.9938 11.439 14.9207 11.1172 14.8079L8.85965 14.0616L9.30365 12.5924L11.3287 13.2964C11.6313 13.3989 11.9807 13.4687 12.3769 13.5059C12.7731 13.543 13.3365 13.5668 14.0672 13.5771C14.0672 13.3296 14.0114 13.1161 13.8999 12.9366C13.7884 12.7571 13.6416 12.636 13.4594 12.5731L7.65765 10.4424C7.63832 10.436 7.62065 10.4313 7.60465 10.4281C7.58865 10.4248 7.57107 10.4231 7.5519 10.4231H5.7019V15.5771ZM0.701904 18.5001V8.92337H7.54215C7.64599 8.92337 7.75149 8.93421 7.85865 8.95587C7.96565 8.97771 8.0659 9.00529 8.1594 9.03862L13.9864 11.1849C14.4402 11.3527 14.8172 11.6498 15.1172 12.0761C15.4172 12.5025 15.5672 13.0028 15.5672 13.5771H18.0672C18.7852 13.5771 19.3701 13.8089 19.8219 14.2724C20.2739 14.7357 20.4999 15.3373 20.4999 16.0771V16.8846L13.0094 19.2116L5.7019 17.1271V18.5001H0.701904ZM2.2019 17.0001H4.2019V10.4231H2.2019V17.0001Z" fill="#1D1D20"/>
</svg>
