<svg width="24" height="24" viewBox="0 0 24 24" fill="none" xmlns="http://www.w3.org/2000/svg">
<mask id="mask0_1163_7309" style="mask-type:alpha" maskUnits="userSpaceOnUse" x="0" y="0" width="24" height="24">
<rect width="24" height="24" fill="#D9D9D9"/>
</mask>
<g mask="url(#mask0_1163_7309)">
<path d="M17.673 15.6443C17.673 17.2683 17.1079 18.6502 15.9778 19.79C14.8478 20.93 13.4722 21.5 11.851 21.5C10.2298 21.5 8.85259 20.93 7.71926 19.79C6.58592 18.6502 6.01926 17.2683 6.01926 15.6443V6.65375C6.01926 5.49992 6.41992 4.51917 7.22126 3.7115C8.02242 2.90383 8.99992 2.5 10.1538 2.5C11.3076 2.5 12.2852 2.90383 13.0865 3.7115C13.8878 4.51917 14.2885 5.49992 14.2885 6.65375V15.1635C14.2885 15.8403 14.0528 16.4182 13.5813 16.897C13.1096 17.3758 12.5349 17.6152 11.8573 17.6152C11.1794 17.6152 10.6011 17.3775 10.1223 16.902C9.64342 16.4265 9.40401 15.847 9.40401 15.1635V6.38475H10.9038V15.1635C10.9038 15.4315 10.9938 15.6572 11.174 15.8405C11.3542 16.0238 11.5783 16.1155 11.8463 16.1155C12.1141 16.1155 12.3381 16.0238 12.5183 15.8405C12.6984 15.6572 12.7885 15.4315 12.7885 15.1635V6.64425C12.7782 5.90575 12.5217 5.28042 12.019 4.76825C11.5163 4.25608 10.8946 4 10.1538 4C9.41609 4 8.79259 4.25767 8.28326 4.773C7.77392 5.2885 7.51926 5.91542 7.51926 6.65375V15.6443C7.50892 16.8533 7.92684 17.8814 8.77301 18.7288C9.61917 19.5763 10.6463 20 11.8545 20C13.0455 20 14.0579 19.5763 14.8918 18.7288C15.7254 17.8814 16.1525 16.8533 16.173 15.6443V6.38475H17.673V15.6443Z" fill="#19191A"/>
</g>
</svg>
