<svg width="24" height="24" viewBox="0 0 24 24" fill="none" xmlns="http://www.w3.org/2000/svg">
<mask id="mask0_1163_7295" style="mask-type:alpha" maskUnits="userSpaceOnUse" x="0" y="0" width="24" height="24">
<rect width="24" height="24" fill="#D9D9D9"/>
</mask>
<g mask="url(#mask0_1163_7295)">
<path d="M12 19C13.1 19 14.0417 18.6083 14.825 17.825C15.6083 17.0417 16 16.1 16 15V11C16 9.90001 15.6083 8.95834 14.825 8.17501C14.0417 7.39167 13.1 7.00001 12 7.00001C10.9 7.00001 9.95833 7.39167 9.175 8.17501C8.39167 8.95834 8 9.90001 8 11V15C8 16.1 8.39167 17.0417 9.175 17.825C9.95833 18.6083 10.9 19 12 19ZM10.1537 15.75H13.8462V14.25H10.1537V15.75ZM10.1537 11.75H13.8462V10.25H10.1537V11.75ZM12 20.5C11.0065 20.5 10.0889 20.2558 9.24725 19.7673C8.40558 19.2788 7.73725 18.6063 7.24225 17.75H4.5V16.25H6.677C6.57567 15.8398 6.52083 15.4248 6.5125 15.0048C6.50417 14.5849 6.5 14.1667 6.5 13.75H4.5V12.25H6.5C6.5 11.827 6.501 11.4055 6.503 10.9855C6.50483 10.5657 6.56283 10.1538 6.677 9.75001H4.5V8.25001H7.24225C7.48208 7.84101 7.76542 7.46826 8.09225 7.13176C8.41925 6.79526 8.79367 6.51159 9.2155 6.28076L7.51925 4.55376L8.55375 3.51926L10.6848 5.65001C11.1129 5.51934 11.5462 5.45401 11.9845 5.45401C12.423 5.45401 12.8563 5.51934 13.2845 5.65001L15.4653 3.51926L16.5 4.55376L14.773 6.28076C15.1948 6.51159 15.5712 6.79267 15.902 7.12401C16.2327 7.45551 16.5179 7.83084 16.7578 8.25001H19.5V9.75001H17.323C17.4372 10.1538 17.4952 10.5657 17.497 10.9855C17.499 11.4055 17.5 11.827 17.5 12.25H19.5V13.75H17.5C17.5 14.1667 17.4958 14.5849 17.4875 15.0048C17.4792 15.4248 17.4243 15.8398 17.323 16.25H19.5V17.75H16.7578C16.2628 18.6063 15.5944 19.2788 14.7527 19.7673C13.9111 20.2558 12.9935 20.5 12 20.5Z" fill="#19191A"/>
</g>
</svg>
