<svg width="24" height="24" viewBox="0 0 24 24" fill="none" xmlns="http://www.w3.org/2000/svg">
<mask id="mask0_1163_7327" style="mask-type:alpha" maskUnits="userSpaceOnUse" x="0" y="0" width="24" height="24">
<rect width="24" height="24" fill="#D9D9D9"/>
</mask>
<g mask="url(#mask0_1163_7327)">
<path d="M5 20.75C4.7875 20.75 4.60942 20.6781 4.46575 20.5343C4.32192 20.3906 4.25 20.2125 4.25 20V18.9423H3.25V15.1923C3.25 14.9798 3.32192 14.8017 3.46575 14.658C3.60942 14.5142 3.7875 14.4423 4 14.4423H5.25V7C5.25 5.96417 5.616 5.08017 6.348 4.348C7.08017 3.616 7.96417 3.25 9 3.25C10.0358 3.25 10.9198 3.616 11.652 4.348C12.384 5.08017 12.75 5.96417 12.75 7V17C12.75 17.627 12.9683 18.1588 13.4047 18.5953C13.8412 19.0317 14.373 19.25 15 19.25C15.627 19.25 16.1588 19.0317 16.5953 18.5953C17.0317 18.1588 17.25 17.627 17.25 17V9.55775H16C15.7875 9.55775 15.6094 9.48583 15.4658 9.342C15.3219 9.19833 15.25 9.02025 15.25 8.80775V5.05775H16.25V4C16.25 3.7875 16.3219 3.60942 16.4658 3.46575C16.6094 3.32192 16.7875 3.25 17 3.25H19C19.2125 3.25 19.3906 3.32192 19.5343 3.46575C19.6781 3.60942 19.75 3.7875 19.75 4V5.05775H20.75V8.80775C20.75 9.02025 20.6781 9.19833 20.5343 9.342C20.3906 9.48583 20.2125 9.55775 20 9.55775H18.75V17C18.75 18.0358 18.384 18.9198 17.652 19.652C16.9198 20.384 16.0358 20.75 15 20.75C13.9642 20.75 13.0802 20.384 12.348 19.652C11.616 18.9198 11.25 18.0358 11.25 17V7C11.25 6.373 11.0318 5.84125 10.5953 5.40475C10.1588 4.96825 9.627 4.75 9 4.75C8.373 4.75 7.84125 4.96825 7.40475 5.40475C6.96825 5.84125 6.75 6.373 6.75 7V14.4423H8C8.2125 14.4423 8.39058 14.5142 8.53425 14.658C8.67808 14.8017 8.75 14.9798 8.75 15.1923V18.9423H7.75V20C7.75 20.2125 7.67808 20.3906 7.53425 20.5343C7.39058 20.6781 7.2125 20.75 7 20.75H5Z" fill="#19191A"/>
</g>
</svg>
