<svg width="24" height="24" viewBox="0 0 24 24" fill="none" xmlns="http://www.w3.org/2000/svg">
<mask id="mask0_715_15516" style="mask-type:alpha" maskUnits="userSpaceOnUse" x="0" y="0" width="24" height="24">
<rect width="24" height="24" fill="#D9D9D9"/>
</mask>
<g mask="url(#mask0_715_15516)">
<path d="M12.05 19.75C9.88717 19.75 8.0465 18.9974 6.528 17.4923C5.00934 15.9871 4.25 14.1563 4.25 12V11.2192L2.4 13.0693L1.34625 12.0155L5 8.3615L8.65375 12.0155L7.6 13.0693L5.75 11.2192V12C5.75 13.7372 6.3615 15.2132 7.5845 16.428C8.80767 17.6427 10.2962 18.25 12.05 18.25C12.4642 18.25 12.8779 18.2048 13.2913 18.1145C13.7048 18.024 14.1083 17.8884 14.502 17.7078L15.627 18.8328C15.0642 19.1353 14.4831 19.3637 13.8838 19.5182C13.2843 19.6727 12.673 19.75 12.05 19.75ZM19 15.6385L15.3463 11.9845L16.4 10.9307L18.25 12.7808V12C18.25 10.2628 17.6385 8.78683 16.4155 7.572C15.1923 6.35733 13.7038 5.75 11.95 5.75C11.5358 5.75 11.1221 5.79517 10.7088 5.8855C10.2953 5.976 9.89167 6.11158 9.498 6.29225L8.373 5.16725C8.93584 4.86475 9.51692 4.63625 10.1163 4.48175C10.7158 4.32725 11.327 4.25 11.95 4.25C14.1128 4.25 15.9535 5.00258 17.472 6.50775C18.9907 8.01292 19.75 9.84367 19.75 12V12.7808L21.6 10.9307L22.6538 11.9845L19 15.6385Z" fill="#19191A"/>
</g>
</svg>
