<svg width="180" height="180" viewBox="0 0 180 180" fill="none" xmlns="http://www.w3.org/2000/svg">
<mask id="mask0_6640_1900" style="mask-type:alpha" maskUnits="userSpaceOnUse" x="0" y="0" width="180" height="180">
<rect width="180" height="180" fill="#D9D9D9"/>
</mask>
<g mask="url(#mask0_6640_1900)">
<path d="M78.9375 121.601L129.476 71.0625L122.942 64.6444L78.9375 108.722L56.7263 86.5106L50.3794 92.9287L78.9375 121.601ZM90.0131 161.25C80.2356 161.25 71.0231 159.38 62.3756 155.64C53.7281 151.9 46.1662 146.793 39.69 140.319C33.2137 133.846 28.1044 126.287 24.3619 117.643C20.6206 109.001 18.75 99.7906 18.75 90.0131C18.75 80.1581 20.62 70.895 24.36 62.2237C28.1 53.5525 33.2069 46.01 39.6806 39.5962C46.1544 33.1825 53.7131 28.1044 62.3569 24.3619C70.9994 20.6206 80.2094 18.75 89.9869 18.75C99.8419 18.75 109.105 20.62 117.776 24.36C126.448 28.1 133.99 33.1756 140.404 39.5869C146.818 45.9981 151.896 53.5375 155.638 62.205C159.379 70.8725 161.25 80.1331 161.25 89.9869C161.25 99.7644 159.38 108.977 155.64 117.624C151.9 126.272 146.824 133.834 140.413 140.31C134.002 146.786 126.463 151.896 117.795 155.638C109.128 159.379 99.8669 161.25 90.0131 161.25ZM90 152.739C107.461 152.739 122.283 146.629 134.466 134.409C146.648 122.188 152.739 107.385 152.739 90C152.739 72.5387 146.648 57.7169 134.466 45.5344C122.283 33.3519 107.461 27.2606 90 27.2606C72.615 27.2606 57.8119 33.3519 45.5906 45.5344C33.3706 57.7169 27.2606 72.5387 27.2606 90C27.2606 107.385 33.3706 122.188 45.5906 134.409C57.8119 146.629 72.615 152.739 90 152.739Z" fill="#1F8A3D"/>
</g>
</svg>
