<svg width="24" height="24" viewBox="0 0 24 24" fill="none" xmlns="http://www.w3.org/2000/svg">
<mask id="mask0_1163_7337" style="mask-type:alpha" maskUnits="userSpaceOnUse" x="0" y="0" width="24" height="24">
<rect width="24" height="24" fill="#D9D9D9"/>
</mask>
<g mask="url(#mask0_1163_7337)">
<path d="M19 20.75C18.3757 20.75 17.8196 20.5625 17.3318 20.1875C16.8439 19.8125 16.5224 19.3333 16.3673 18.75H11C9.96417 18.75 9.08017 18.384 8.348 17.652C7.616 16.9198 7.25 16.0358 7.25 15C7.25 13.9642 7.616 13.0802 8.348 12.348C9.08017 11.616 9.96417 11.25 11 11.25H13C13.6188 11.25 14.1485 11.0295 14.589 10.5885C15.0297 10.1475 15.25 9.61742 15.25 8.99825C15.25 8.37892 15.0297 7.84933 14.589 7.4095C14.1485 6.96983 13.6188 6.75 13 6.75H7.63275C7.46725 7.33333 7.14317 7.8125 6.6605 8.1875C6.17783 8.5625 5.62433 8.75 5 8.75C4.23617 8.75 3.58683 8.48275 3.052 7.94825C2.51733 7.41375 2.25 6.76475 2.25 6.00125C2.25 5.23758 2.51733 4.58817 3.052 4.053C3.58683 3.51767 4.23617 3.25 5 3.25C5.62433 3.25 6.17783 3.4375 6.6605 3.8125C7.14317 4.1875 7.46725 4.66667 7.63275 5.25H13C14.0358 5.25 14.9198 5.616 15.652 6.348C16.384 7.08017 16.75 7.96417 16.75 9C16.75 10.0358 16.384 10.9198 15.652 11.652C14.9198 12.384 14.0358 12.75 13 12.75H11C10.3812 12.75 9.8515 12.9705 9.411 13.4115C8.97033 13.8525 8.75 14.3826 8.75 15.0017C8.75 15.6211 8.97033 16.1507 9.411 16.5905C9.8515 17.0302 10.3812 17.25 11 17.25H16.3673C16.5328 16.6667 16.8568 16.1875 17.3395 15.8125C17.8222 15.4375 18.3757 15.25 19 15.25C19.7638 15.25 20.4132 15.5173 20.948 16.0518C21.4827 16.5863 21.75 17.2353 21.75 17.9988C21.75 18.7624 21.4827 19.4118 20.948 19.947C20.4132 20.4823 19.7638 20.75 19 20.75ZM5 7.25C5.3475 7.25 5.64267 7.1285 5.8855 6.8855C6.1285 6.64267 6.25 6.3475 6.25 6C6.25 5.6525 6.1285 5.35733 5.8855 5.1145C5.64267 4.8715 5.3475 4.75 5 4.75C4.6525 4.75 4.35733 4.8715 4.1145 5.1145C3.8715 5.35733 3.75 5.6525 3.75 6C3.75 6.3475 3.8715 6.64267 4.1145 6.8855C4.35733 7.1285 4.6525 7.25 5 7.25Z" fill="#19191A"/>
</g>
</svg>
