<svg width="24" height="24" viewBox="0 0 24 24" fill="none" xmlns="http://www.w3.org/2000/svg">
<mask id="mask0_1947_42619" style="mask-type:alpha" maskUnits="userSpaceOnUse" x="0" y="0" width="24" height="24">
<rect width="24" height="24" fill="#D9D9D9"/>
</mask>
<g mask="url(#mask0_1947_42619)">
<path d="M17.25 22.75V18.75H7.05775C6.55258 18.75 6.125 18.575 5.775 18.225C5.425 17.875 5.25 17.4474 5.25 16.9423V6.75H1.25V5.25H5.25V1.25H6.75V16.9423C6.75 17.0192 6.78208 17.0898 6.84625 17.1538C6.91025 17.2179 6.98075 17.25 7.05775 17.25H22.75V18.75H18.75V22.75H17.25ZM17.25 15.75V7.05775C17.25 6.98075 17.2179 6.91025 17.1538 6.84625C17.0898 6.78208 17.0192 6.75 16.9423 6.75H8.25V5.25H16.9423C17.4474 5.25 17.875 5.425 18.225 5.775C18.575 6.125 18.75 6.55258 18.75 7.05775V15.75H17.25Z" fill="#19191A"/>
</g>
</svg>
