<svg width="24" height="24" viewBox="0 0 24 24" fill="none" xmlns="http://www.w3.org/2000/svg">
<mask id="mask0_989_2455" style="mask-type:alpha" maskUnits="userSpaceOnUse" x="0" y="0" width="24" height="24">
<rect width="24" height="24" fill="#D9D9D9"/>
</mask>
<g mask="url(#mask0_989_2455)">
<path d="M9.4 16.1537L12 13.5537L14.6 16.1537L15.6538 15.1L13.0538 12.5L15.6538 9.89999L14.6 8.84624L12 11.4462L9.4 8.84624L8.34625 9.89999L10.9463 12.5L8.34625 15.1L9.4 16.1537ZM7.30775 20.5C6.80258 20.5 6.375 20.325 6.025 19.975C5.675 19.625 5.5 19.1974 5.5 18.6922V5.99999H4.5V4.49999H9V3.61549H15V4.49999H19.5V5.99999H18.5V18.6922C18.5 19.1974 18.325 19.625 17.975 19.975C17.625 20.325 17.1974 20.5 16.6923 20.5H7.30775ZM17 5.99999H7V18.6922C7 18.7692 7.03208 18.8397 7.09625 18.9037C7.16025 18.9679 7.23075 19 7.30775 19H16.6923C16.7692 19 16.8398 18.9679 16.9038 18.9037C16.9679 18.8397 17 18.7692 17 18.6922V5.99999Z" fill="#19191A"/>
</g>
</svg>
