<svg width="24" height="24" viewBox="0 0 24 24" fill="none" xmlns="http://www.w3.org/2000/svg">
<mask id="mask0_1163_7288" style="mask-type:alpha" maskUnits="userSpaceOnUse" x="0" y="0" width="24" height="24">
<rect width="24" height="24" fill="#D9D9D9"/>
</mask>
<g mask="url(#mask0_1163_7288)">
<path d="M2.25 5.75V1.25H6.75V2.75H3.75V5.75H2.25ZM20.25 5.75V2.75H17.25V1.25H21.75V5.75H20.25ZM2.25 22.75V18.25H3.75V21.25H6.75V22.75H2.25ZM17.25 22.75V21.25H20.25V18.25H21.75V22.75H17.25ZM6.75 17.9423C6.75 18.0193 6.78208 18.0898 6.84625 18.1538C6.91025 18.2179 6.98075 18.25 7.05775 18.25H16.9423C17.0192 18.25 17.0898 18.2179 17.1538 18.1538C17.2179 18.0898 17.25 18.0193 17.25 17.9423V6.05775C17.25 5.98075 17.2179 5.91025 17.1538 5.84625C17.0898 5.78208 17.0192 5.75 16.9423 5.75H7.05775C6.98075 5.75 6.91025 5.78208 6.84625 5.84625C6.78208 5.91025 6.75 5.98075 6.75 6.05775V17.9423ZM7.05775 19.75C6.55258 19.75 6.125 19.575 5.775 19.225C5.425 18.875 5.25 18.4474 5.25 17.9423V6.05775C5.25 5.55258 5.425 5.125 5.775 4.775C6.125 4.425 6.55258 4.25 7.05775 4.25H16.9423C17.4474 4.25 17.875 4.425 18.225 4.775C18.575 5.125 18.75 5.55258 18.75 6.05775V17.9423C18.75 18.4474 18.575 18.875 18.225 19.225C17.875 19.575 17.4474 19.75 16.9423 19.75H7.05775ZM9.25 9.75H14.75V8.25H9.25V9.75ZM9.25 12.75H14.75V11.25H9.25V12.75ZM9.25 15.75H14.75V14.25H9.25V15.75ZM6.75 17.9423V5.75V18.25V17.9423Z" fill="#19191A"/>
</g>
</svg>
