<svg width="18" height="18" viewBox="0 0 18 18" fill="none" xmlns="http://www.w3.org/2000/svg">
<path d="M1.59802 17.4614C1.28019 17.5319 1.00652 17.4524 0.777023 17.2229C0.547523 16.9934 0.468023 16.7197 0.538523 16.4019L1.37502 12.3864L5.61352 16.6249L1.59802 17.4614ZM5.61352 16.6249L1.37502 12.3864L12.5943 1.16715C12.9391 0.822319 13.366 0.649902 13.875 0.649902C14.384 0.649902 14.8109 0.822319 15.1558 1.16715L16.8328 2.84415C17.1776 3.18899 17.35 3.6159 17.35 4.1249C17.35 4.6339 17.1776 5.06082 16.8328 5.40565L5.61352 16.6249ZM13.6635 2.22115L3.43852 12.4364L5.56352 14.5614L15.7788 4.3364C15.8364 4.27874 15.8653 4.20665 15.8653 4.12015C15.8653 4.03349 15.8364 3.96132 15.7788 3.90365L14.0963 2.22115C14.0386 2.16349 13.9664 2.13465 13.8798 2.13465C13.7933 2.13465 13.7212 2.16349 13.6635 2.22115Z" fill="#1D1D20"/>
</svg>
