<svg width="24" height="24" viewBox="0 0 24 24" fill="none" xmlns="http://www.w3.org/2000/svg">
<mask id="mask0_1163_7285" style="mask-type:alpha" maskUnits="userSpaceOnUse" x="0" y="0" width="24" height="24">
<rect width="24" height="24" fill="#D9D9D9"/>
</mask>
<g mask="url(#mask0_1163_7285)">
<path d="M5.86925 2.30975H7.28075L10.6558 10.8H9.24225L8.44425 8.7365H4.70575L3.90775 10.8H2.49425L5.86925 2.30975ZM5.725 12.35C6.3545 12.35 6.88684 12.5677 7.322 13.003C7.75734 13.4382 7.975 13.9705 7.975 14.6C7.975 14.9013 7.9205 15.1901 7.8115 15.4663C7.7025 15.7426 7.541 15.9878 7.327 16.202L6.77875 16.725L7.825 17.7807L9.25 16.3807L10.3193 17.45L8.91925 18.8595L10.3193 20.275L9.25 21.3193L7.85 19.9193L6.627 21.152C6.4025 21.3763 6.14642 21.5446 5.85875 21.6568C5.57092 21.7689 5.268 21.825 4.95 21.825C4.327 21.825 3.80458 21.6032 3.38275 21.1595C2.96092 20.716 2.75 20.1795 2.75 19.55C2.75 19.2487 2.80867 18.9599 2.926 18.6838C3.04333 18.4074 3.209 18.1622 3.423 17.948L4.65575 16.7155L4.123 16.1923C3.909 15.9783 3.74333 15.7373 3.626 15.4693C3.50867 15.2013 3.45 14.9198 3.45 14.625C3.45 13.9955 3.67183 13.459 4.1155 13.0155C4.559 12.5718 5.0955 12.35 5.725 12.35ZM5.725 17.7943L4.477 19.027C4.40767 19.0962 4.35667 19.1759 4.324 19.2663C4.29133 19.3568 4.275 19.4513 4.275 19.55C4.275 19.7538 4.34483 19.9298 4.4845 20.078C4.62433 20.226 4.79617 20.3 5 20.3C5.09867 20.3 5.19158 20.2811 5.27875 20.2432C5.36608 20.2054 5.4475 20.1487 5.523 20.073L6.77125 18.8405L5.725 17.7943ZM5.7 13.85C5.49617 13.85 5.32433 13.924 5.1845 14.072C5.04483 14.2202 4.975 14.3962 4.975 14.6C4.975 14.6987 4.99133 14.7933 5.024 14.8837C5.05667 14.9741 5.10767 15.0538 5.177 15.123L5.7155 15.6557L6.223 15.148C6.29867 15.0725 6.35542 14.9911 6.39325 14.9038C6.43108 14.8166 6.45 14.7237 6.45 14.625C6.45 14.4147 6.37758 14.2329 6.23275 14.0798C6.08792 13.9266 5.91033 13.85 5.7 13.85ZM6.525 3.94225L5.14425 7.53275H8.00575L6.625 3.94225H6.525ZM17.398 1.875C17.5122 2.05967 17.6071 2.24942 17.6828 2.44425C17.7584 2.63908 17.8232 2.83717 17.877 3.0385L16.9365 3.325H21.5578V4.825H20.1135C19.943 5.42633 19.6958 5.99042 19.372 6.51725C19.0483 7.04425 18.666 7.5225 18.225 7.952C18.6878 8.24433 19.1689 8.48917 19.6683 8.6865C20.1676 8.884 20.6853 9.04942 21.2213 9.18275L20.8713 10.6365C20.1866 10.466 19.5228 10.2442 18.8798 9.971C18.2369 9.698 17.6232 9.35633 17.0385 8.946C16.4475 9.346 15.8241 9.68192 15.1683 9.95375C14.5126 10.2256 13.836 10.45 13.1385 10.627L12.7943 9.19225C13.3328 9.05892 13.8597 8.89358 14.375 8.69625C14.8903 8.49875 15.3827 8.25067 15.852 7.952C15.4238 7.516 15.0527 7.03458 14.7385 6.50775C14.4243 5.98075 14.1872 5.41983 14.027 4.825H12.4423V3.325H16.4865C16.443 3.14033 16.3892 2.9615 16.325 2.7885C16.2608 2.6155 16.1903 2.445 16.1135 2.277L17.398 1.875ZM20.075 12.8308L21.1443 13.875L13.725 21.2943L12.6558 20.25L20.075 12.8308ZM14.5 13.3C14.8462 13.3 15.141 13.4218 15.3845 13.6655C15.6282 13.909 15.75 14.2038 15.75 14.55C15.75 14.8962 15.6282 15.191 15.3845 15.4345C15.141 15.6782 14.8462 15.8 14.5 15.8C14.1538 15.8 13.859 15.6782 13.6155 15.4345C13.3718 15.191 13.25 14.8962 13.25 14.55C13.25 14.2038 13.3718 13.909 13.6155 13.6655C13.859 13.4218 14.1538 13.3 14.5 13.3ZM15.6038 4.825C15.7371 5.25067 15.9263 5.65 16.1713 6.023C16.4161 6.39617 16.7052 6.73658 17.0385 7.04425C17.3782 6.73658 17.6753 6.39617 17.9298 6.023C18.1843 5.65 18.3865 5.25067 18.5365 4.825H15.6038ZM19.5 18.3C19.8462 18.3 20.141 18.4218 20.3845 18.6655C20.6282 18.909 20.75 19.2038 20.75 19.55C20.75 19.8962 20.6282 20.191 20.3845 20.4345C20.141 20.6782 19.8462 20.8 19.5 20.8C19.1538 20.8 18.859 20.6782 18.6155 20.4345C18.3718 20.191 18.25 19.8962 18.25 19.55C18.25 19.2038 18.3718 18.909 18.6155 18.6655C18.859 18.4218 19.1538 18.3 19.5 18.3Z" fill="#19191A"/>
</g>
</svg>
