<svg width="24" height="24" viewBox="0 0 24 24" fill="none" xmlns="http://www.w3.org/2000/svg">
<mask id="mask0_1163_7296" style="mask-type:alpha" maskUnits="userSpaceOnUse" x="0" y="0" width="24" height="24">
<rect width="24" height="24" fill="#D9D9D9"/>
</mask>
<g mask="url(#mask0_1163_7296)">
<path d="M7.90375 20H16.0962V17C16.0962 15.8615 15.6982 14.8877 14.902 14.0787C14.1058 13.2697 13.1385 12.8652 12 12.8652C10.8615 12.8652 9.89417 13.2697 9.098 14.0787C8.30183 14.8877 7.90375 15.8615 7.90375 17V20ZM12 11.1348C13.1385 11.1348 14.1058 10.7302 14.902 9.92125C15.6982 9.11225 16.0962 8.1385 16.0962 7V4H7.90375V7C7.90375 8.1385 8.30183 9.11225 9.098 9.92125C9.89417 10.7302 10.8615 11.1348 12 11.1348ZM4.5 21.5V20H6.404V17C6.404 15.8743 6.712 14.8497 7.328 13.926C7.944 13.0022 8.76033 12.3602 9.777 12C8.76033 11.6333 7.944 10.9898 7.328 10.0693C6.712 9.14875 6.404 8.12567 6.404 7V4H4.5V2.5H19.5V4H17.596V7C17.596 8.12567 17.288 9.14875 16.672 10.0693C16.056 10.9898 15.2397 11.6333 14.223 12C15.2397 12.3602 16.056 13.0022 16.672 13.926C17.288 14.8497 17.596 15.8743 17.596 17V20H19.5V21.5H4.5Z" fill="#19191A"/>
</g>
</svg>
