<svg viewBox="0 0 18 18" fill="none" xmlns="http://www.w3.org/2000/svg">
<path d="M16.5422 17.577L10.2615 11.296C9.76149 11.7088 9.18649 12.0319 8.53649 12.2653C7.88649 12.4986 7.21407 12.6153 6.51924 12.6153C4.81007 12.6153 3.36357 12.0235 2.17974 10.84C0.995908 9.6565 0.403992 8.21033 0.403992 6.5015C0.403992 4.79283 0.995741 3.34617 2.17924 2.1615C3.36274 0.977001 4.80891 0.38475 6.51774 0.38475C8.22641 0.38475 9.67307 0.976666 10.8577 2.1605C12.0422 3.34433 12.6345 4.79083 12.6345 6.5C12.6345 7.21417 12.5147 7.89625 12.275 8.54625C12.0352 9.19625 11.7152 9.76158 11.3152 10.2423L17.596 16.523L16.5422 17.577ZM6.51924 11.1155C7.80774 11.1155 8.89908 10.6683 9.79324 9.774C10.6876 8.87983 11.1347 7.7885 11.1347 6.5C11.1347 5.2115 10.6876 4.12017 9.79324 3.226C8.89908 2.33167 7.80774 1.8845 6.51924 1.8845C5.23074 1.8845 4.13941 2.33167 3.24524 3.226C2.35091 4.12017 1.90374 5.2115 1.90374 6.5C1.90374 7.7885 2.35091 8.87983 3.24524 9.774C4.13941 10.6683 5.23074 11.1155 6.51924 11.1155Z" fill="#1D1D20"/>
</svg>
