<svg width="21" height="20" viewBox="0 0 21 20" fill="none" xmlns="http://www.w3.org/2000/svg">
<path d="M4.40015 11.75V10.25H10.4001V11.75H4.40015ZM4.40015 8.625V7.125H13.4001V8.625H4.40015ZM4.40015 5.5V4H13.4001V5.5H4.40015ZM11.4001 16V13.6458L15.7751 9.29167C15.876 9.18875 15.988 9.11437 16.1112 9.06854C16.2344 9.02285 16.3568 9 16.4785 9C16.6111 9 16.7383 9.02431 16.8599 9.07292C16.9816 9.12153 17.0922 9.19444 17.1918 9.29167L18.1085 10.2292C18.2 10.33 18.2715 10.442 18.3229 10.5652C18.3744 10.6884 18.4001 10.8108 18.4001 10.9325C18.4001 11.0542 18.3773 11.1786 18.3316 11.3058C18.2858 11.4329 18.2114 11.5463 18.1085 11.6458L13.7543 16H11.4001ZM12.4001 15H13.3376L15.7335 12.6042L15.2751 12.125L14.8168 11.6667L12.4001 14.0625V15ZM15.2751 12.125L14.8168 11.6667L15.7335 12.6042L15.2751 12.125Z" fill="#B9B9C0"/>
</svg>
