<svg width="16" height="16" viewBox="0 0 24 24" fill="none" xmlns="http://www.w3.org/2000/svg">
<path d="M6.04425 19H17.9307L15.4943 16.5635C15.0109 16.9392 14.4734 17.2308 13.8818 17.4385C13.2901 17.6462 12.6628 17.75 12 17.75C11.3372 17.75 10.7099 17.6436 10.1183 17.4307C9.52658 17.2179 8.98908 16.9237 8.50575 16.548L6.04425 19ZM5 17.9307L7.4365 15.4943C7.06083 15.0109 6.76917 14.4734 6.5615 13.8818C6.35383 13.2901 6.25 12.6628 6.25 12C6.25 11.3372 6.35642 10.7099 6.56925 10.1182C6.78208 9.52658 7.07633 8.98908 7.452 8.50575L5 6.04425V17.9307ZM8.52125 14.4098L10.9463 12L8.52125 9.59025C8.27375 9.93525 8.08333 10.3081 7.95 10.7087C7.81667 11.1092 7.75 11.5397 7.75 12C7.75 12.4603 7.81667 12.8907 7.95 13.2913C8.08333 13.6919 8.27375 14.0648 8.52125 14.4098ZM12 16.25C12.4603 16.25 12.8908 16.1833 13.2913 16.05C13.6919 15.9167 14.0648 15.7263 14.4098 15.4788L12 13.0442L9.56525 15.4788C9.91025 15.7263 10.2873 15.9167 10.6963 16.05C11.1051 16.1833 11.5397 16.25 12 16.25ZM12 10.9307L14.4098 8.52125C14.0648 8.27375 13.6919 8.08333 13.2913 7.95C12.8908 7.81667 12.4603 7.75 12 7.75C11.5397 7.75 11.1093 7.81667 10.7088 7.95C10.3081 8.08333 9.93525 8.27375 9.59025 8.52125L12 10.9307ZM15.4788 14.4098C15.7263 14.0648 15.9167 13.6919 16.05 13.2913C16.1833 12.8907 16.25 12.4603 16.25 12C16.25 11.5397 16.1833 11.1051 16.05 10.6962C15.9167 10.2872 15.7263 9.91025 15.4788 9.56525L13.0693 11.975L15.4788 14.4098ZM19 17.9307V6.04425L16.548 8.50575C16.9237 8.98908 17.2179 9.52658 17.4307 10.1182C17.6436 10.7099 17.75 11.3372 17.75 12C17.75 12.6628 17.6462 13.2901 17.4385 13.8818C17.2308 14.4734 16.9392 15.0109 16.5635 15.4943L19 17.9307ZM15.4943 7.452L17.9557 5H6.06925L8.50575 7.4365C8.98908 7.06083 9.52658 6.76917 10.1183 6.5615C10.7099 6.35383 11.3372 6.25 12 6.25C12.6628 6.25 13.2901 6.35642 13.8818 6.56925C14.4734 6.78208 15.0109 7.07633 15.4943 7.452ZM5.30775 20.5C4.80258 20.5 4.375 20.325 4.025 19.975C3.675 19.625 3.5 19.1974 3.5 18.6923V5.30775C3.5 4.80258 3.675 4.375 4.025 4.025C4.375 3.675 4.80258 3.5 5.30775 3.5H18.6923C19.1974 3.5 19.625 3.675 19.975 4.025C20.325 4.375 20.5 4.80258 20.5 5.30775V18.6923C20.5 19.1909 20.325 19.6169 19.975 19.9703C19.625 20.3234 19.1974 20.5 18.6923 20.5H5.30775Z" fill="#1D1D20"/>
</svg>
