<svg width="24" height="24" viewBox="0 0 20 10" fill="none" xmlns="http://www.w3.org/2000/svg">
<path d="M8.80775 9.53843H5.0385C3.78283 9.53843 2.7125 9.09593 1.8275 8.21093C0.9425 7.32609 0.5 6.25593 0.5 5.00042C0.5 3.74492 0.9425 2.67459 1.8275 1.78943C2.7125 0.904092 3.78283 0.461426 5.0385 0.461426H8.80775V1.96143H5.0385C4.19867 1.96143 3.48233 2.25792 2.8895 2.85092C2.2965 3.44392 2 4.16026 2 4.99993C2 5.83959 2.2965 6.55593 2.8895 7.14893C3.48233 7.74193 4.19867 8.03843 5.0385 8.03843H8.80775V9.53843ZM6.25 5.74993V4.24993H13.75V5.74993H6.25ZM11.1923 9.53843V8.03843H14.9615C15.8013 8.03843 16.5177 7.74193 17.1105 7.14893C17.7035 6.55593 18 5.83959 18 4.99993C18 4.16026 17.7035 3.44392 17.1105 2.85092C16.5177 2.25792 15.8013 1.96143 14.9615 1.96143H11.1923V0.461426H14.9615C16.2172 0.461426 17.2875 0.903925 18.1725 1.78893C19.0575 2.67376 19.5 3.74393 19.5 4.99943C19.5 6.25493 19.0575 7.32526 18.1725 8.21043C17.2875 9.09576 16.2172 9.53843 14.9615 9.53843H11.1923Z" fill="#1D1D20"/>
</svg>
