<svg width="16" height="16" viewBox="0 0 16 16" fill="none" xmlns="http://www.w3.org/2000/svg">
<path d="M8.00004 10.0007C8.5556 10.0007 9.02782 9.80621 9.41671 9.41732C9.8056 9.02843 10 8.55621 10 8.00065C10 7.4451 9.8056 6.97287 9.41671 6.58398C9.02782 6.1951 8.5556 6.00065 8.00004 6.00065C7.44449 6.00065 6.97226 6.1951 6.58337 6.58398C6.19449 6.97287 6.00004 7.4451 6.00004 8.00065C6.00004 8.55621 6.19449 9.02843 6.58337 9.41732C6.97226 9.80621 7.44449 10.0007 8.00004 10.0007ZM8.00004 11.0007C7.1676 11.0007 6.45949 10.7088 5.87571 10.125C5.29193 9.54121 5.00004 8.8331 5.00004 8.00065C5.00004 7.16821 5.29193 6.4601 5.87571 5.87632C6.45949 5.29254 7.1676 5.00065 8.00004 5.00065C8.83249 5.00065 9.5406 5.29254 10.1244 5.87632C10.7082 6.4601 11 7.16821 11 8.00065C11 8.8331 10.7082 9.54121 10.1244 10.125C9.5406 10.7088 8.83249 11.0007 8.00004 11.0007ZM3.33337 8.50065H0.833374V7.50065H3.33337V8.50065ZM15.1667 8.50065H12.6667V7.50065H15.1667V8.50065ZM7.50004 3.33398V0.833984H8.50004V3.33398H7.50004ZM7.50004 15.1673V12.6673H8.50004V15.1673H7.50004ZM4.38204 5.05198L2.82054 3.54432L3.52704 2.80448L5.03087 4.34932L4.38204 5.05198ZM12.473 13.1968L10.959 11.6417L11.618 10.9493L13.1795 12.457L12.473 13.1968ZM10.9487 4.38265L12.4564 2.82115L13.1962 3.52765L11.6514 5.03148L10.9487 4.38265ZM2.80387 12.4737L4.35904 10.9597L5.03854 11.6187L3.53721 13.1865L2.80387 12.4737Z" fill="#1D1D20"/>
</svg>
