<svg width="16" height="16" viewBox="0 0 16 16" fill="none" xmlns="http://www.w3.org/2000/svg">
<path d="M8.01916 13.6666C6.44516 13.6666 5.10722 13.1156 4.00533 12.0137C2.90355 10.912 2.35266 9.57401 2.35266 7.9999C2.35266 6.49135 2.86438 5.19757 3.88783 4.11857C4.91127 3.03946 6.16444 2.45501 7.64733 2.36523C7.74311 2.36523 7.83716 2.36868 7.92949 2.37557C8.02172 2.38246 8.11227 2.39273 8.20116 2.4064C7.86105 2.72429 7.59016 3.10846 7.38849 3.5589C7.18672 4.00935 7.08583 4.48968 7.08583 4.9999C7.08583 6.09246 7.46827 7.02118 8.23316 7.78607C8.99794 8.55085 9.92661 8.93324 11.0192 8.93324C11.5363 8.93324 12.0183 8.8324 12.4653 8.63074C12.9123 8.42896 13.2927 8.15801 13.6063 7.8179C13.62 7.90679 13.6303 7.9974 13.6372 8.08974C13.6439 8.18196 13.6473 8.27596 13.6473 8.37174C13.5619 9.85462 12.9797 11.1078 11.9007 12.1312C10.8215 13.1548 9.52772 13.6666 8.01916 13.6666ZM8.01916 12.6666C8.99694 12.6666 9.87472 12.3971 10.6525 11.8582C11.4303 11.3193 11.9969 10.6166 12.3525 9.7499C12.1303 9.80546 11.908 9.8499 11.6858 9.88324C11.4636 9.91657 11.2414 9.93324 11.0192 9.93324C9.65249 9.93324 8.48861 9.45268 7.52749 8.49157C6.56638 7.53046 6.08583 6.36657 6.08583 4.9999C6.08583 4.77768 6.10249 4.55546 6.13583 4.33323C6.16916 4.11101 6.21361 3.88879 6.26916 3.66657C5.40249 4.02212 4.69972 4.58879 4.16083 5.36657C3.62194 6.14435 3.35249 7.02212 3.35249 7.9999C3.35249 9.28879 3.80805 10.3888 4.71916 11.2999C5.63027 12.211 6.73027 12.6666 8.01916 12.6666Z" fill="#1D1D20"/>
</svg>
