<svg width="24" height="24" viewBox="0 0 24 24" fill="none" xmlns="http://www.w3.org/2000/svg">
<path d="M16 8.30775V5.30775H8.00001V8.30775H6.50001V3.80775H17.5V8.30775H16ZM17.8078 12.3078C18.0911 12.3078 18.3286 12.2119 18.5203 12.0203C18.7119 11.8286 18.8078 11.5911 18.8078 11.3078C18.8078 11.0244 18.7119 10.7869 18.5203 10.5953C18.3286 10.4036 18.0911 10.3078 17.8078 10.3078C17.5244 10.3078 17.2869 10.4036 17.0953 10.5953C16.9036 10.7869 16.8078 11.0244 16.8078 11.3078C16.8078 11.5911 16.9036 11.8286 17.0953 12.0203C17.2869 12.2119 17.5244 12.3078 17.8078 12.3078ZM16 19V14.7308H8.00001V19H16ZM17.5 20.5H6.50001V16.5H2.78851V10.8078C2.78851 10.0994 3.03051 9.50567 3.51451 9.0265C3.99851 8.54733 4.58985 8.30775 5.28851 8.30775H18.7115C19.4198 8.30775 20.0136 8.54733 20.4928 9.0265C20.9719 9.50567 21.2115 10.0994 21.2115 10.8078V16.5H17.5V20.5ZM19.7115 15V10.8078C19.7115 10.5244 19.6157 10.2869 19.424 10.0953C19.2323 9.90358 18.9948 9.80775 18.7115 9.80775H5.28851C5.00518 9.80775 4.76768 9.90358 4.57601 10.0953C4.38435 10.2869 4.28851 10.5244 4.28851 10.8078V15H6.50001V13.2308H17.5V15H19.7115Z" fill="#1D1D20"/>
</svg>
