<svg width="19" height="14" viewBox="0 0 19 14" fill="none" xmlns="http://www.w3.org/2000/svg">
<path d="M9.54089 13.4583C7.73852 13.4583 6.20464 12.8312 4.93922 11.5769C3.67366 10.3226 3.04089 8.79695 3.04089 7V6.34938L1.49922 7.89104L0.621094 7.01292L3.66589 3.96792L6.71068 7.01292L5.83255 7.89104L4.29089 6.34938V7C4.29089 8.44764 4.80047 9.67764 5.81964 10.69C6.83894 11.7022 8.07936 12.2083 9.54089 12.2083C9.88603 12.2083 10.2308 12.1707 10.5753 12.0954C10.9198 12.02 11.2562 11.907 11.5842 11.7565L12.5217 12.694C12.0527 12.946 11.5685 13.1365 11.069 13.2652C10.5694 13.394 10.0601 13.4583 9.54089 13.4583ZM15.3326 10.0321L12.2878 6.98709L13.1659 6.10896L14.7076 7.65063V7C14.7076 5.55236 14.198 4.32236 13.1788 3.31C12.1595 2.29778 10.9191 1.79167 9.45755 1.79167C9.11241 1.79167 8.76762 1.82931 8.42318 1.90458C8.07859 1.98 7.74228 2.09299 7.41422 2.24354L6.47672 1.30604C6.94575 1.05396 7.42998 0.863543 7.92943 0.734793C8.42901 0.606043 8.93839 0.541668 9.45755 0.541668C11.2599 0.541668 12.7938 1.16882 14.0592 2.42313C15.3248 3.67743 15.9576 5.20306 15.9576 7V7.65063L17.4992 6.10896L18.3773 6.98709L15.3326 10.0321Z" fill="#0139A3"/>
</svg>
