<svg width="24" height="24" viewBox="0 0 960 960" fill="none" xmlns="http://www.w3.org/2000/svg">
    <path d="M824 880L716 772q-22 13-46 20.5t-50 7.5q-75 0-127.5-52.5T440 620q0-75 52.5-127.5T620 440q75 0 127.5 52.5T800 620q0 26-7.5 50T772 716l108 108-56 56ZM620 720q42 0 71-29t29-71q0-42-29-71t-71-29q-42 0-71 29t-29 71q0 42 29 71t71 29Zm220-320h-80V200h-80v120H280V200h-80v560h200v80H200q-33 0-56.5-23.5T120 800V240q0-33 23.5-56.5T200 160h167q11-35 43-57.5T480 80q40 0 71.5 22.5T594 160h166q33 0 56.5 23.5T840 240v200ZM480 200q17 0 28.5-11.5T520 160q0-17-11.5-28.5T480 120q-17 0-28.5 11.5T440 160q0 17 11.5 28.5T480 200Z" fill="#1D1D20"/>
  </svg>
  