<svg width="18" height="10" viewBox="0 0 18 10" fill="none" xmlns="http://www.w3.org/2000/svg">
<path d="M2.30775 9.5C1.80258 9.5 1.375 9.325 1.025 8.975C0.675 8.625 0.5 8.19742 0.5 7.69225V2.30775C0.5 1.80258 0.675 1.375 1.025 1.025C1.375 0.675 1.80258 0.5 2.30775 0.5H15.6923C16.1974 0.5 16.625 0.675 16.975 1.025C17.325 1.375 17.5 1.80258 17.5 2.30775V7.69225C17.5 8.19742 17.325 8.625 16.975 8.975C16.625 9.325 16.1974 9.5 15.6923 9.5H2.30775ZM2.30775 8H15.6923C15.7692 8 15.8398 7.96792 15.9038 7.90375C15.9679 7.83975 16 7.76925 16 7.69225V2.30775C16 2.23075 15.9679 2.16025 15.9038 2.09625C15.8398 2.03208 15.7692 2 15.6923 2H2.30775C2.23075 2 2.16025 2.03208 2.09625 2.09625C2.03208 2.16025 2 2.23075 2 2.30775V7.69225C2 7.76925 2.03208 7.83975 2.09625 7.90375C2.16025 7.96792 2.23075 8 2.30775 8Z" fill="#19191A"/>
</svg>
