<svg width="24" height="24" viewBox="0 0 24 24" fill="none" xmlns="http://www.w3.org/2000/svg">
<mask id="mask0_1163_7306" style="mask-type:alpha" maskUnits="userSpaceOnUse" x="0" y="0" width="24" height="24">
<rect width="24" height="24" fill="#D9D9D9"/>
</mask>
<g mask="url(#mask0_1163_7306)">
<path d="M6.30775 22.5C5.80258 22.5 5.375 22.325 5.025 21.975C4.675 21.625 4.5 21.1974 4.5 20.6923V10.3078C4.5 9.80259 4.675 9.375 5.025 9.025C5.375 8.675 5.80258 8.5 6.30775 8.5H8.86525V10H6.30775C6.23075 10 6.16025 10.0321 6.09625 10.0963C6.03208 10.1603 6 10.2308 6 10.3078V20.6923C6 20.7693 6.03208 20.8398 6.09625 20.9038C6.16025 20.9679 6.23075 21 6.30775 21H17.6923C17.7692 21 17.8398 20.9679 17.9038 20.9038C17.9679 20.8398 18 20.7693 18 20.6923V10.3078C18 10.2308 17.9679 10.1603 17.9038 10.0963C17.8398 10.0321 17.7692 10 17.6923 10H15.1348V8.5H17.6923C18.1974 8.5 18.625 8.675 18.975 9.025C19.325 9.375 19.5 9.80259 19.5 10.3078V20.6923C19.5 21.1974 19.325 21.625 18.975 21.975C18.625 22.325 18.1974 22.5 17.6923 22.5H6.30775ZM11.25 15.75V4.71925L9.4 6.56925L8.34625 5.5L12 1.84625L15.6538 5.5L14.6 6.56925L12.75 4.71925V15.75H11.25Z" fill="#19191A"/>
</g>
</svg>
