<svg width="76.45" height="32" viewBox="0 0 371 156" fill="none" xmlns="http://www.w3.org/2000/svg">
<path d="M128.052 105.682H97.8993L83.0186 130.655L97.1161 156H127.269L113.172 131.027L128.052 105.682Z" fill="#E2231A"/>
<path d="M139.017 105.682L126.877 125.436H176.218L113.954 28.1545L35.6351 156H60.3057L114.346 67.6636L139.017 105.682Z" fill="#E2231A"/>
<path d="M139.8 14.3635C137.326 10.0381 133.632 6.45568 129.136 4.01929C124.639 1.58291 119.517 0.389257 114.346 0.572619C108.766 0.328634 103.234 1.64596 98.4316 4.36183C93.6296 7.0777 89.7687 11.0731 87.3261 15.8544C84.9765 19.209 0 156 0 156H24.279C24.279 156 101.032 32.2544 105.731 25.1726C106.436 23.8755 107.478 22.7713 108.757 21.9648C110.036 21.1583 111.51 20.6762 113.04 20.5641C114.57 20.4521 116.104 20.714 117.498 21.3248C118.892 21.9356 120.098 22.8752 121.003 24.0544L184.834 123.2C185.528 124.546 185.857 126.036 185.788 127.534C185.72 129.032 185.257 130.489 184.442 131.773C183.708 133.142 182.585 134.287 181.2 135.078C179.815 135.869 178.225 136.273 176.61 136.245H126.877L139.017 156H178.96C183.711 155.789 188.354 154.576 192.553 152.449C196.752 150.322 200.402 147.334 203.239 143.7C213.812 130.654 204.022 114.627 202.456 112.018C200.889 109.409 141.366 16.5999 139.8 14.3635Z" fill="#E2231A"/>
<path d="M359.419 64.7228C359.155 62.2516 358.042 60.3275 356.08 58.9505C354.138 57.5734 351.61 56.8849 348.497 56.8849C346.309 56.8849 344.432 57.215 342.866 57.8752C341.301 58.5355 340.103 59.4315 339.273 60.5633C338.443 61.6952 338.018 62.9873 337.999 64.4399C337.999 65.6471 338.273 66.6941 338.82 67.5807C339.386 68.4673 340.15 69.2218 341.112 69.8444C342.074 70.448 343.14 70.9573 344.309 71.3723C345.479 71.7873 346.658 72.1363 347.846 72.4193L353.279 73.7775C355.467 74.2868 357.571 74.9753 359.589 75.8431C361.626 76.7108 363.447 77.8049 365.05 79.1254C366.673 80.4458 367.955 82.0398 368.898 83.9074C369.842 85.7749 370.313 87.9631 370.313 90.472C370.313 93.8675 369.446 96.8574 367.71 99.4417C365.975 102.007 363.466 104.016 360.183 105.469C356.92 106.902 352.968 107.619 348.327 107.619C343.819 107.619 339.905 106.921 336.585 105.525C333.284 104.129 330.699 102.092 328.832 99.4134C326.983 96.7348 325.983 93.4713 325.832 89.6231H336.16C336.311 91.6415 336.934 93.3204 338.028 94.6598C339.122 95.9991 340.546 96.9989 342.3 97.6591C344.074 98.3193 346.054 98.6495 348.243 98.6495C350.525 98.6495 352.525 98.3099 354.241 97.6308C355.977 96.9328 357.335 95.9708 358.316 94.7446C359.297 93.4996 359.797 92.0471 359.816 90.3871C359.797 88.878 359.353 87.633 358.486 86.652C357.618 85.6523 356.401 84.8223 354.835 84.162C353.289 83.4829 351.478 82.8793 349.403 82.3511L342.81 80.6533C338.037 79.4272 334.264 77.5691 331.491 75.0791C328.737 72.5702 327.36 69.2407 327.36 65.0907C327.36 61.6763 328.285 58.6864 330.133 56.1209C332.001 53.5554 334.538 51.5653 337.745 50.1505C340.952 48.7168 344.583 48 348.639 48C352.751 48 356.354 48.7168 359.448 50.1505C362.56 51.5653 365.003 53.5365 366.776 56.0643C368.549 58.5732 369.464 61.4594 369.521 64.7228H359.419Z" fill="#D22D0F"/>
<path d="M316.558 48.7915V106.741H306.06V48.7915H316.558Z" fill="#D22D0F"/>
<path d="M294.622 48.7915V106.741H285.284L257.979 67.2687H257.498V106.741H247V48.7915H256.394L283.671 88.2924H284.181V48.7915H294.622Z" fill="#D22D0F"/>
</svg>
