<svg width="24" height="24" viewBox="0 0 24 24" fill="none" xmlns="http://www.w3.org/2000/svg">
<mask id="mask0_12585_2270" style="mask-type:alpha" maskUnits="userSpaceOnUse" x="0" y="0" width="24" height="24">
<rect width="24" height="24" fill="#D9D9D9"/>
</mask>
<g mask="url(#mask0_12585_2270)">
<path d="M13 20.519V18.615H14.9037V20.519H13ZM11.0962 18.615V13.9035H13V18.615H11.0962ZM18.6152 15.4227V11.9997H20.5192V15.4227H18.6152ZM16.7115 11.9997V10.096H18.6152V11.9997H16.7115ZM5.38471 13.9035V11.9997H7.28846V13.9035H5.38471ZM3.48071 11.9997V10.096H5.38471V11.9997H3.48071ZM12 5.38447V3.48047H13.9037V5.38447H12ZM4.67296 7.99972H7.99996V4.67272H4.67296V7.99972ZM3.48071 9.19197V3.48047H9.19221V9.19197H3.48071ZM4.67296 19.3267H8.07696V15.9997H4.67296V19.3267ZM3.48071 20.519V14.8075H9.26921V20.519H3.48071ZM16 7.99972H19.327V4.67272H16V7.99972ZM14.8077 9.19197V3.48047H20.5192V9.19197H14.8077ZM16.7115 20.519V17.3265H14.8077V15.4227H18.6152V18.615H20.5192V20.519H16.7115ZM13 13.9035V11.9997H16.7115V13.9035H13ZM9.19221 13.9035V11.9997H7.28846V10.096H13V11.9997H11.0962V13.9035H9.19221ZM10.0962 9.19197V5.38447H12V7.28822H13.9037V9.19197H10.0962ZM5.64421 7.02847V5.64397H7.02871V7.02847H5.64421ZM5.71146 18.2882V16.9035H7.09621V18.2882H5.71146ZM16.9712 7.02847V5.64397H18.3557V7.02847H16.9712Z" fill="#19191A"/>
</g>
</svg>
