<svg width="25" height="24" viewBox="0 0 25 24" fill="none" xmlns="http://www.w3.org/2000/svg">
    <g clip-path="url(#clip0_1546_29170)">
        <mask id="mask0_1546_29170" style="mask-type:alpha" maskUnits="userSpaceOnUse" x="0" y="0" width="25" height="24">
            <rect x="0.5" width="24" height="24" fill="#D9D9D9"/>
        </mask>
        <g mask="url(#mask0_1546_29170)">
            <path d="M5.80775 20.5C5.30258 20.5 4.875 20.325 4.525 19.975C4.175 19.625 4 19.1974 4 18.6923V15H5.5V18.6923C5.5 18.7692 5.53208 18.8398 5.59625 18.9038C5.66025 18.9679 5.73075 19 5.80775 19H9.5V20.5H5.80775ZM15.5 20.5V19H19.1923C19.2692 19 19.3398 18.9679 19.4038 18.9038C19.4679 18.8398 19.5 18.7692 19.5 18.6923V15H21V18.6923C21 19.1974 20.825 19.625 20.475 19.975C20.125 20.325 19.6974 20.5 19.1923 20.5H15.5ZM4 9V5.30775C4 4.80258 4.175 4.375 4.525 4.025C4.875 3.675 5.30258 3.5 5.80775 3.5H9.5V5H5.80775C5.73075 5 5.66025 5.03208 5.59625 5.09625C5.53208 5.16025 5.5 5.23075 5.5 5.30775V9H4ZM19.5 9V5.30775C19.5 5.23075 19.4679 5.16025 19.4038 5.09625C19.3398 5.03208 19.2692 5 19.1923 5H15.5V3.5H19.1923C19.6974 3.5 20.125 3.675 20.475 4.025C20.825 4.375 21 4.80258 21 5.30775V9H19.5Z" fill="white"/>
        </g>
    </g>
    <defs>
        <clipPath id="clip0_1546_29170">
            <rect width="24" height="24" fill="white" transform="translate(0.5)"/>
        </clipPath>
    </defs>
</svg>
