<svg width="21" height="20" viewBox="0 0 21 20" fill="none" xmlns="http://www.w3.org/2000/svg">
<path d="M10.6667 17.9167C9.68381 17.9167 8.76291 17.7308 7.90402 17.359C7.04499 16.9872 6.29603 16.4818 5.65715 15.8429C5.01826 15.2041 4.51291 14.4551 4.1411 13.5961C3.7693 12.7372 3.5834 11.8163 3.5834 10.8334C3.5834 9.85044 3.7693 8.92954 4.1411 8.07065C4.51291 7.21162 5.01826 6.46266 5.65715 5.82377C6.29603 5.18488 7.04499 4.67954 7.90402 4.30773C8.76291 3.93592 9.68381 3.75002 10.6667 3.75002C11.6496 3.75002 12.5705 3.93592 13.4294 4.30773C14.2885 4.67954 15.0374 5.18488 15.6763 5.82377C16.3152 6.46266 16.8205 7.21162 17.1924 8.07065C17.5642 8.92954 17.7501 9.85044 17.7501 10.8334C17.7501 11.8163 17.5642 12.7372 17.1924 13.5961C16.8205 14.4551 16.3152 15.2041 15.6763 15.8429C15.0374 16.4818 14.2885 16.9872 13.4294 17.359C12.5705 17.7308 11.6496 17.9167 10.6667 17.9167ZM13.1442 14.1892L14.0226 13.3109L11.2917 10.5802V6.66669H10.0417V11.0865L13.1442 14.1892ZM5.46152 2.4071L6.33985 3.28523L3.1186 6.50648L2.24048 5.62815L5.46152 2.4071ZM15.8719 2.4071L19.093 5.62815L18.2149 6.50648L14.9936 3.28523L15.8719 2.4071Z" fill="#1D1D20"/>
</svg>
