<svg width="21" height="20" viewBox="0 0 21 20" fill="none" xmlns="http://www.w3.org/2000/svg">
<path d="M4.66675 11.75V10.25H10.6667V11.75H4.66675ZM4.66675 8.625V7.125H13.6667V8.625H4.66675ZM4.66675 5.5V4H13.6667V5.5H4.66675ZM11.6667 16V13.6458L16.0417 9.29167C16.1426 9.18875 16.2546 9.11437 16.3778 9.06854C16.501 9.02285 16.6234 9 16.7451 9C16.8777 9 17.0049 9.02431 17.1265 9.07292C17.2482 9.12153 17.3588 9.19444 17.4584 9.29167L18.3751 10.2292C18.4666 10.33 18.5381 10.442 18.5895 10.5652C18.641 10.6884 18.6667 10.8108 18.6667 10.9325C18.6667 11.0542 18.6439 11.1786 18.5982 11.3058C18.5524 11.4329 18.478 11.5463 18.3751 11.6458L14.0209 16H11.6667ZM12.6667 15H13.6042L16.0001 12.6042L15.5417 12.125L15.0834 11.6667L12.6667 14.0625V15ZM15.5417 12.125L15.0834 11.6667L16.0001 12.6042L15.5417 12.125Z" fill="#1D1D20"/>
</svg>
