<svg width="24" height="24" viewBox="0 0 24 24" fill="none" xmlns="http://www.w3.org/2000/svg">
<mask id="mask0_1163_7316" style="mask-type:alpha" maskUnits="userSpaceOnUse" x="0" y="0" width="24" height="24">
<rect width="24" height="24" fill="#D9D9D9"/>
</mask>
<g mask="url(#mask0_1163_7316)">
<path d="M4.598 20.4615C4.28017 20.532 4.0065 20.4525 3.777 20.223C3.5475 19.9935 3.468 19.7198 3.5385 19.402L4.375 15.3865L8.6135 19.625L4.598 20.4615ZM8.6135 19.625L4.375 15.3865L15.5943 4.16724C15.9391 3.82241 16.366 3.64999 16.875 3.64999C17.384 3.64999 17.8109 3.82241 18.1557 4.16724L19.8328 5.84424C20.1776 6.18908 20.35 6.61599 20.35 7.12499C20.35 7.63399 20.1776 8.06091 19.8328 8.40574L8.6135 19.625ZM16.6635 5.22124L6.4385 15.4365L8.5635 17.5615L18.7788 7.33649C18.8364 7.27883 18.8652 7.20674 18.8652 7.12024C18.8652 7.03358 18.8364 6.96141 18.7788 6.90374L17.0962 5.22124C17.0386 5.16358 16.9664 5.13474 16.8798 5.13474C16.7933 5.13474 16.7212 5.16358 16.6635 5.22124Z" fill="#19191A"/>
</g>
</svg>
