<svg width="24" height="24" viewBox="0 0 24 24" fill="none" xmlns="http://www.w3.org/2000/svg">
<mask id="mask0_1163_7299" style="mask-type:alpha" maskUnits="userSpaceOnUse" x="0" y="0" width="24" height="24">
<rect width="24" height="24" fill="#D9D9D9"/>
</mask>
<g mask="url(#mask0_1163_7299)">
<path d="M7.4 21.6538L6.34625 20.6L12.9 14.0308L16.4 17.5307L21.575 12.3558L22.6443 13.425L16.4 19.6538L12.9 16.1538L7.4 21.6538ZM4.30775 20.5C3.80258 20.5 3.375 20.325 3.025 19.975C2.675 19.625 2.5 19.1974 2.5 18.6923V5.30775C2.5 4.80258 2.675 4.375 3.025 4.025C3.375 3.675 3.80258 3.5 4.30775 3.5H17.6923C18.1974 3.5 18.625 3.675 18.975 4.025C19.325 4.375 19.5 4.80258 19.5 5.30775V9.50775H4V18.6923C4 18.7692 4.03208 18.8398 4.09625 18.9038C4.16025 18.9679 4.23075 19 4.30775 19V20.5ZM4 8.00775H18V5.30775C18 5.23075 17.9679 5.16025 17.9038 5.09625C17.8398 5.03208 17.7692 5 17.6923 5H4.30775C4.23075 5 4.16025 5.03208 4.09625 5.09625C4.03208 5.16025 4 5.23075 4 5.30775V8.00775Z" fill="#19191A"/>
</g>
</svg>
