<svg width="24" height="24" viewBox="0 0 24 24" fill="none" xmlns="http://www.w3.org/2000/svg">
<mask id="mask0_1163_7321" style="mask-type:alpha" maskUnits="userSpaceOnUse" x="0" y="0" width="24" height="24">
<rect width="24" height="24" fill="#D9D9D9"/>
</mask>
<g mask="url(#mask0_1163_7321)">
<path d="M15.773 12.973L14.65 11.85C14.8 11.0218 14.5638 10.2773 13.9413 9.61625C13.3189 8.95542 12.5552 8.7 11.65 8.85L10.527 7.727C10.7527 7.62567 10.9841 7.54967 11.2213 7.499C11.4584 7.44834 11.718 7.423 12 7.423C13.1347 7.423 14.0978 7.81884 14.8895 8.6105C15.6812 9.40217 16.077 10.3653 16.077 11.5C16.077 11.782 16.0517 12.0448 16.001 12.2885C15.9503 12.532 15.8743 12.7602 15.773 12.973ZM18.9538 16.0845L17.85 15.05C18.4833 14.5667 19.0458 14.0375 19.5375 13.4625C20.0292 12.8875 20.45 12.2333 20.8 11.5C19.9667 9.81667 18.7708 8.47917 17.2125 7.4875C15.6542 6.49584 13.9167 6 12 6C11.5167 6 11.0417 6.03334 10.575 6.1C10.1083 6.16667 9.65001 6.26667 9.20001 6.4L8.03476 5.23475C8.66676 4.98342 9.31226 4.79817 9.97126 4.679C10.6303 4.55967 11.3065 4.5 12 4.5C14.3435 4.5 16.4569 5.14617 18.3403 6.4385C20.2236 7.73084 21.5973 9.418 22.4615 11.5C22.091 12.3935 21.6125 13.2275 21.026 14.002C20.4393 14.7763 19.7486 15.4705 18.9538 16.0845ZM19.7615 21.8693L15.7155 17.8538C15.2027 18.0436 14.6343 18.1988 14.0105 18.3193C13.3868 18.4398 12.7167 18.5 12 18.5C9.65001 18.5 7.5366 17.8538 5.65976 16.5615C3.78276 15.2692 2.40901 13.582 1.53851 11.5C1.90768 10.6167 2.3846 9.79267 2.96926 9.028C3.55393 8.26317 4.19751 7.6 4.90001 7.0385L2.13076 4.2385L3.18476 3.18475L20.8153 20.8153L19.7615 21.8693ZM5.95401 8.09225C5.42568 8.51275 4.91185 9.01825 4.41251 9.60875C3.91318 10.1991 3.50901 10.8295 3.20001 11.5C4.03335 13.1833 5.22918 14.5208 6.78751 15.5125C8.34585 16.5042 10.0833 17 12 17C12.4552 17 12.9084 16.9615 13.3598 16.8845C13.8109 16.8077 14.1936 16.7283 14.5078 16.6463L13.2423 15.35C13.0718 15.4192 12.8743 15.4743 12.65 15.5153C12.4257 15.5564 12.209 15.577 12 15.577C10.8653 15.577 9.90218 15.1812 9.11051 14.3895C8.31885 13.5978 7.92301 12.6347 7.92301 11.5C7.92301 11.2975 7.9436 11.0857 7.98476 10.8645C8.02576 10.6433 8.08085 10.4411 8.15001 10.2578L5.95401 8.09225Z" fill="#19191A"/>
</g>
</svg>
