<svg width="24" height="24" viewBox="0 0 24 24" fill="none" xmlns="http://www.w3.org/2000/svg">
<g clip-path="url(#clip0_2474_47)">
<path d="M11.3343 14.5155L9.77296 17.2344L11.2734 20H14.4568L12.9631 17.2611L14.5041 14.5155H11.3275H11.3343ZM13.0442 6.01215L4.75115 20H7.36006L13.0645 10.3238L15.6734 14.5155L14.4028 16.6746H19.6071L13.0442 6.01215ZM22.3782 15.1819C22.1687 14.8753 15.9235 4.73932 15.7545 4.51274C15.5788 4.28616 14.9773 3 13.0442 3C11.1112 3 10.4353 4.33281 10.2055 4.68601C9.96897 5.0392 1 19.9933 1 19.9933H3.5616C3.5616 19.9933 11.6654 6.47197 12.1724 5.69894C12.6928 4.91258 13.5376 5.18581 13.7945 5.59232C14.0445 6.00549 20.0194 15.5884 20.533 16.4081C20.6547 16.6013 20.7088 16.9679 20.506 17.3477C20.31 17.7209 19.945 17.8209 19.6882 17.8209H14.3825L15.6802 20H19.9247C20.3303 20 21.5469 19.8334 22.4863 18.6539C23.6218 17.2211 22.5877 15.4751 22.3849 15.1819" fill="#D22D0F"/>
</g>
<defs>
<clipPath id="clip0_2474_47">
<rect width="22" height="17" fill="white" transform="translate(1 3)"/>
</clipPath>
</defs>
</svg>
